<svg xmlns="http://www.w3.org/2000/svg" viewBox="0 0 285.44 543.45"><title>about-you</title><path d="M196.19,52.53c-8.75,15.06,7.72,40.44-8.88,45.71l1.37-1.37c10-12.32-10.92-38.39-.9-50.71a30.68,30.68,0,0,0,4-5.92" transform="translate(-7.98 0)" fill="#2f2e41"/><path d="M278.07,273.51a10.49,10.49,0,0,0-8.35-12.27,10.25,10.25,0,0,0-1.84-.18l-21.61-62.8-12,15.25,22.86,58.68a10.55,10.55,0,0,0,20.91,1.32Z" transform="translate(-7.98 0)" fill="#ffb8b8"/><path d="M183.07,121.91s-.68-22.74,19.65-9.71,64.58,135,64.58,135l-22,11.91-50-111.62Z" transform="translate(-7.98 0)" fill="#6c63ff"/><polygon points="235.05 511.49 224.9 515.83 203.34 478.74 218.32 472.34 235.05 511.49" fill="#ffb6b6"/><path d="M255.91,526.78l-7.28,3.11-4.24-6.31-.39,8.29-19.31,8.25a4.72,4.72,0,0,1-5.84-6.86L229.72,516l-3-6.95,16.63-6Z" transform="translate(-7.98 0)" fill="#2f2e41"/><polygon points="75.94 524.07 64.92 523.53 61.75 480.75 78.02 481.54 75.94 524.07" fill="#ffb6b6"/><path d="M88.81,543.45l-7.91-.38-1-7.54-4,7.29-21-1a4.73,4.73,0,0,1-2.26-8.73L70,522.33l.37-7.55,17.56,1.91Z" transform="translate(-7.98 0)" fill="#2f2e41"/><path d="M111.77,246S89.35,307.08,89,313.92s-6.75,93.3-12.12,98.32-21.75,82.91-9,89,53-4,53-4l14-92,4.76-70.48s14.48,166,40.74,165.49,58.26-10.49,58.26-10.49L201.87,389.24s.52-119-8-143S111.77,246,111.77,246Z" transform="translate(-7.98 0)" fill="#2f2e41"/><path d="M178.3,88.57l-30,2.75-4.83,14.85s-25.13,13.8-19.57,20.07-1.24,48.52-1.24,48.52l1.54,34.29s-1.65,23.76-6.6,29.23-17.87,18.9-8.73,12.48c32-22.52,88-3.52,88-3.52l-8-49s18.18-80.22,11-87-13.93-7.63-13.93-7.63Z" transform="translate(-7.98 0)" fill="#6c63ff"/><path d="M20.53,244a10.5,10.5,0,0,0,8.4-12.24,10.26,10.26,0,0,0-.5-1.78l50.64-43-18.55-5.6L14.17,224a10.55,10.55,0,0,0,6.36,20Z" transform="translate(-7.98 0)" fill="#ffb8b8"/><path d="M149.14,131.63s10-20.44-13.91-16.95-114.46,96.4-114.46,96.4L35.93,231l91.54-81.11Z" transform="translate(-7.98 0)" fill="#6c63ff"/><path d="M110.24,97,15.54,218.29a10.09,10.09,0,0,0,1.74,14.13c22,53.39,87.79,93,165.19,128.93a10.06,10.06,0,0,0,14.12-1.74L291.3,238.29a10.08,10.08,0,0,0-1.75-14.13C224.6,187.48,168.78,145,124.37,95.22A10.09,10.09,0,0,0,110.24,97Z" transform="translate(-7.98 0)" fill="#e6e6e6"/><path d="M284.65,235.53l-28.83,36.93a107.91,107.91,0,0,1-151,18.61L24,228a5.73,5.73,0,0,1-1-8l91.51-117.23a5.74,5.74,0,0,1,8-1c40.86,52.77,95.56,93.84,161.09,125.75A5.72,5.72,0,0,1,284.65,235.53Z" transform="translate(-7.98 0)" fill="#fff"/><path d="M108.35,163.2,89.58,187.25a3.05,3.05,0,0,1-4.81-3.76l18.77-24.05a3.05,3.05,0,1,1,4.82,3.74v0Z" transform="translate(-7.98 0)" fill="#ccc"/><path d="M143.57,145.36l-41.23,52.81a3,3,0,1,1-4.81-3.75h0l41.23-52.82a3,3,0,1,1,4.81,3.74Z" transform="translate(-7.98 0)" fill="#ccc"/><circle cx="65.27" cy="213.36" r="20.1" fill="#6c63ff"/><path d="M145.76,187.1,95.12,252a3.07,3.07,0,0,1-4.81-3.75l50.63-64.88a3.08,3.08,0,0,1,4.82,3.76Z" transform="translate(-7.98 0)" fill="#ccc"/><path d="M178.6,172.29l-70.67,90.54a3.07,3.07,0,0,1-4.81-3.75l70.67-90.55a3.07,3.07,0,0,1,4.81,3.76Z" transform="translate(-7.98 0)" fill="#ccc"/><path d="M178.36,212.55l-50.64,64.87a3.07,3.07,0,0,1-4.81-3.75l50.64-64.88a3.07,3.07,0,0,1,4.81,3.76Z" transform="translate(-7.98 0)" fill="#ccc"/><path d="M245.36,220.55l-50.64,64.87a3.07,3.07,0,0,1-4.81-3.75l50.64-64.88a3.07,3.07,0,0,1,4.81,3.76Z" transform="translate(-7.98 0)" fill="#6c63ff"/><path d="M211.21,197.74l-70.68,90.54a3.07,3.07,0,0,1-4.81-3.75L206.4,194a3.07,3.07,0,0,1,4.81,3.76Z" transform="translate(-7.98 0)" fill="#ccc"/><path d="M128,50.24a29.83,29.83,0,1,0,51.3-20.68l-.15-.14c-.24-.26-.47-.51-.72-.74a0,0,0,0,1,0,0h0c-.31-.28-.62-.57-.94-.84A29.82,29.82,0,0,0,128,50.24Z" transform="translate(-7.98 0)" fill="#2f2e41"/><circle cx="157.15" cy="57.14" r="25.01" fill="#ffb8b8"/><path d="M138.47,63.81c-2.44-11,1.09-23.36,8.79-30.71a28.2,28.2,0,0,1,29.45-5.71c.63.25,1.26.53,1.88.82l.28.14v0l.17.12a1,1,0,0,0,.41.23,15.4,15.4,0,0,1,11.64,4.85c3.87,4.2,5.7,11,5.14,19.13l0,.26-.21.13a86.05,86.05,0,0,1-9.12,5c-11,5.16-21,6.12-30.64,2.92l-.17-.06-4-6.77c-.83,4.67-.38,20.17-5.15,21l-8.29-11Z" transform="translate(-7.98 0)" fill="#2f2e41"/><path d="M85.83,85.58c8.51-4.39-2.44-20.33-.24-29.65s18-12.32,19-21.85S108,14.74,114.31,7.51c4-4.62,9.93-8,16-7.45a14.41,14.41,0,0,1,13,15.71,13.61,13.61,0,0,1-.35,2.09c1.73-2.46,6.22-1.93,7.33.87,1,2.48-1.19,5.49-3.76,5.71-3.36,4.15-7.21,8.56-12.47,9.39a5.69,5.69,0,0,1-4.84-1.11c-1.24-1.19-1.34-3.57.13-4.46-6.61,2.63-10.49,9.78-11.48,16.83s.38,14.19,1.28,21.25,1.28,14.49-1.49,21c-3.27,7.75-10.81,13.3-19,15.08s-17,0-24.41-3.88S60.57,88.68,55.5,82C64.23,88.17,76.31,90.49,85.83,85.58Z" transform="translate(-7.98 0)" fill="#2f2e41"/><path d="M153.19,55.53c-8.75,15.06,7.72,40.44-8.88,45.71l1.37-1.37c10-12.32-10.92-38.39-.9-50.71a30.68,30.68,0,0,0,4-5.92" transform="translate(-7.98 0)" fill="#2f2e41"/><path d="M139.64,63.58s7.41-27.65,39.16-34l.31-.13.34-.18c-.36-.21-.71-.39-1.06-.56a0,0,0,0,1,0,0h0c-.31-.28-.62-.57-.94-.84l-.91,0S144.66,22.81,139.64,63.58Z" transform="translate(-7.98 0)" fill="#fd6584"/></svg>