<svg xmlns="http://www.w3.org/2000/svg" viewBox="0 0 768.37 636.27"><title>collaborators</title><path d="M375.36,138.41a79.83,79.83,0,1,1-79.69-80h0A79.62,79.62,0,0,1,375.36,138Z" transform="translate(-21.74 -58.44)" fill="#f2f2f2"/><path d="M517.78,214.43,529,193c-10.07-12.16-43.09-26.9-43.09-26.9l-44.69-40.68a10.68,10.68,0,1,0-13.12,13l48.28,57.91Z" transform="translate(-21.74 -58.44)" fill="#9e616a"/><path d="M512.34,213,528.19,218a54.37,54.37,0,0,0,35.29-.79h0a19.64,19.64,0,0,0,12.69-16.4h0a19.6,19.6,0,0,0-16.31-21.2c-14.87-2.44-34-3.65-40.85,4.48l-.07.08Z" transform="translate(-21.74 -58.44)" fill="#3f3d56"/><circle cx="376.61" cy="140.3" r="79.83" fill="#fff"/><path d="M365.76,167.51a74.64,74.64,0,0,1-5.35,17.08c-14.08,29.79,26,20.08,40.35,20.08,15.67,0,30.66,8.24,28.37-28.37-1-15.64-12.7-28.37-28.37-28.37C387.38,147.93,368.56,153.88,365.76,167.51Z" transform="translate(-21.74 -58.44)" fill="#2f2e41"/><circle cx="376.68" cy="123.17" r="23.05" fill="#ffb6b6"/><path d="M382.76,158.11a26.41,26.41,0,0,1,40.15,23c-11.75,2.94-24.09,5.2-36.62.7l-3-7.24-1.74,7.25c-3.82,1.56-7.64,2.87-11.47,0A27,27,0,0,1,382.76,158.11Z" transform="translate(-21.74 -58.44)" fill="#2f2e41"/><path d="M460.41,251.82a79.8,79.8,0,0,1-111.68,8.07l6.84-19.11a20.57,20.57,0,0,1,17.46-12l4.35-.27,10.39-9s28-1,27.57-1.48l17,10.2v-.07l6.66.41a20.54,20.54,0,0,1,17.45,12Z" transform="translate(-21.74 -58.44)" fill="#6c63ff"/><polygon points="443.99 578.47 430.72 578.47 424.41 527.31 443.99 527.31 443.99 578.47" fill="#9e616a"/><path d="M469.11,649.76H426.34v-.54A16.65,16.65,0,0,1,443,632.57h0l7.82-5.92,14.57,5.92h3.74Z" transform="translate(-21.74 -58.44)" fill="#2f2e41"/><polygon points="560.88 578.47 547.62 578.47 541.31 527.31 560.89 527.31 560.88 578.47" fill="#9e616a"/><path d="M586,649.76H543.24v-.54a16.65,16.65,0,0,1,16.64-16.65h0l7.81-5.92,14.58,5.92H586Z" transform="translate(-21.74 -58.44)" fill="#2f2e41"/><path d="M562.45,363.09l11.15,106s14.85,106.12,12.06,120.76.7,16.74.7,16.74l-25.45-1.82s.7-9.06-3.48-13.24-2.09-16.74-2.09-16.74L506,402.14l-30,90.64s-4.88,99.71-5.58,101.1-2.79,20.22-2.79,20.22h-25.8s3.49-11.16-1.39-14.64-9.06-.7-4.88-7,5.58-14,4.18-17.44-1.39-17.43-1.39-17.43,2.09-188.25,13.94-194.53S562.45,363.09,562.45,363.09Z" transform="translate(-21.74 -58.44)" fill="#2f2e41"/><circle cx="487.88" cy="62.63" r="27.44" fill="#9e616a"/><path d="M571.93,374.64c-53.14,11-123.56-7.89-123.56-7.89l18.79-81.43-6.68-85.22c-.82-10.42,5.12-20.19,14.35-23.65l12.75-4.77,10.54-15.09,30.1,1,12,15.84,9.5,5,20.58,10.92.09,0v.05L564,252.14l-3.89,37.79s11.83,42.5,9.4,48.13-.31,2.91.27,5.92,2.4,3.2,2.67,9.12S571.93,374.64,571.93,374.64Z" transform="translate(-21.74 -58.44)" fill="#3f3d56"/><path d="M789.19,694.71H378.72a.92.92,0,1,1,0-1.84H789.19a.92.92,0,1,1,0,1.84Z" transform="translate(-21.74 -58.44)" fill="#ccc"/><path d="M508.28,147.19a85.35,85.35,0,0,0,14.35-1.37c4.68-1.08,15-9.08,17.84-13.8h0c2.1-3.51,3.35-8.94,4-12.88a37.79,37.79,0,0,0-7.38-29.81,11.93,11.93,0,0,0-4.93-4,4.64,4.64,0,0,0-.53-.16,14.74,14.74,0,0,1-7.44-4.35A14.4,14.4,0,0,0,523,79.61a18.16,18.16,0,0,0-7.66-3.6c-4.53-1.09-11,.27-19.26,4-4.14,1.9-8.74,1.37-12.28.7a1.14,1.14,0,0,0-1.08.4,8.16,8.16,0,0,1-5.48,2.35c-1.26.09-2.53,1.86-4.07,4.18-.35.53-.76,1.14-1,1.51l-.06-.7-.69.8a9.88,9.88,0,0,0,1,13.94,10,10,0,0,0,3.84,2.05,19.65,19.65,0,0,0,3.89.51c.8,0,1.62.11,2.41.22a14.9,14.9,0,0,1,11.32,9.38,3.9,3.9,0,0,0,5,2.23,4.55,4.55,0,0,0,.89-.49,6.42,6.42,0,0,1,5.83-1.22,4.33,4.33,0,0,1,1.95,2.1,5.56,5.56,0,0,0,2.17,2.41c3.24,1.56,3.65,8.85,2.66,15-1,5.88-3,10.18-5.05,10.44-1.55.2-1.73.32-1.83.6l-.1.24.18.23A6.34,6.34,0,0,0,508.28,147.19Z" transform="translate(-21.74 -58.44)" fill="#2f2e41"/><path d="M398.34,279.56a80.83,80.83,0,1,1,80.83-80.82h0A80.92,80.92,0,0,1,398.34,279.56Zm0-159.65a78.83,78.83,0,1,0,78.83,78.83h0A78.92,78.92,0,0,0,398.34,119.91Z" transform="translate(-21.74 -58.44)" fill="#3f3d56"/><circle cx="80.83" cy="148.39" r="79.83" fill="#fff"/><path d="M65.56,180.86c3.3-10.52,10.81-20.17,21.19-23.72s25.58,1.86,33.39,9.63c14.27,14.23,17.76,63.11,8,78.56-2-.11-8.68-.18-10.66-.26l-2.79-9.31V245c-3.15-.1-6.32-.16-9.51-.2a41.4,41.4,0,0,1-40.87-40.37C64,194.16,64.26,185,65.56,180.86Z" transform="translate(-21.74 -58.44)" fill="#2f2e41"/><circle cx="79.64" cy="134.54" r="22.75" fill="#9e616a"/><path d="M81.74,173l26.2-13.11h0a32.89,32.89,0,0,1,19.28,27.28l.66,7.82-11-2.8-1.2-10-1.87,9.22-5.06-1.28,0-15.53-5.07,15.51L85.68,186Z" transform="translate(-21.74 -58.44)" fill="#2f2e41"/><path d="M161.8,259.65a79.79,79.79,0,0,1-111.68,8.08L57,248.62a20.57,20.57,0,0,1,17.45-12l4.36-.27,10.39-9s28-1,27.57-1.48l17,10.2v-.07l6.66.41a20.52,20.52,0,0,1,17.45,12Z" transform="translate(-21.74 -58.44)" fill="#6c63ff"/><path d="M102.56,287.66a80.83,80.83,0,1,1,80.83-80.83h0A80.93,80.93,0,0,1,102.56,287.66Zm0-159.66a78.83,78.83,0,1,0,78.83,78.83h0A78.92,78.92,0,0,0,102.56,128Z" transform="translate(-21.74 -58.44)" fill="#3f3d56"/><path d="M472.07,240.15l-12.09-21c-15.65,2-45.79,22-45.79,22l-58.29,16a10.68,10.68,0,1,0,4,18.05l74.77-9.75Z" transform="translate(-21.74 -58.44)" fill="#9e616a"/><path d="M467.91,244l27-22.67L498.9,203a19.62,19.62,0,0,0-7-19.49h0A19.6,19.6,0,0,0,465.2,186c-10,11.24-21.3,26.77-18.09,36.89l0,.11Z" transform="translate(-21.74 -58.44)" fill="#3f3d56"/><path d="M222.75,370.77H121.08a10.3,10.3,0,0,1-10.28-10.28V297.88a10.3,10.3,0,0,1,10.28-10.28H222.75A10.28,10.28,0,0,1,233,297.88v62.61A10.28,10.28,0,0,1,222.75,370.77Z" transform="translate(-21.74 -58.44)" fill="#e6e6e6"/><path d="M182.35,362.7H128.23a9.63,9.63,0,0,1-9.63-9.62V305.29a9.63,9.63,0,0,1,9.63-9.62H215.6a9.62,9.62,0,0,1,9.62,9.62v14.54A42.9,42.9,0,0,1,182.35,362.7Z" transform="translate(-21.74 -58.44)" fill="#fff"/><path d="M206.88,321.83H136.94a2.28,2.28,0,0,1,0-4.56h69.94a2.28,2.28,0,1,1,0,4.56Z" transform="translate(-21.74 -58.44)" fill="#6c63ff"/><path d="M147.88,330.85H136.94a2.28,2.28,0,0,1,0-4.56h10.94a2.28,2.28,0,1,1,0,4.56Z" transform="translate(-21.74 -58.44)" fill="#6c63ff"/><path d="M167.26,339.86H136.94a2.28,2.28,0,0,1,0-4.56h30.32a2.28,2.28,0,0,1,0,4.56Z" transform="translate(-21.74 -58.44)" fill="#6c63ff"/><circle cx="85.52" cy="227.91" r="21.51" fill="#3f3d56"/></svg>