<svg xmlns="http://www.w3.org/2000/svg" viewBox="0 0 365.9 733.81"><title>empy_book_store</title><path d="M365.9,174.38h-4V63.93A63.92,63.92,0,0,0,297.94,0h-234A63.93,63.93,0,0,0,0,63.93H0v606a63.93,63.93,0,0,0,63.93,63.93h234a63.92,63.92,0,0,0,63.92-63.93h0V253h4Z" transform="translate(0 0)" fill="#e6e6e6"/><path d="M300.52,16.63H270a22.68,22.68,0,0,1-21,31.25H114.91a22.68,22.68,0,0,1-21-31.25H65.38A47.74,47.74,0,0,0,17.64,64.37h0V669.44a47.74,47.74,0,0,0,47.74,47.74H300.52a47.75,47.75,0,0,0,47.74-47.74h0V64.37a47.75,47.75,0,0,0-47.74-47.74Z" transform="translate(0 0)" fill="#fff"/><path d="M122.43,212.69H93.23a3,3,0,0,0-3,3,3.4,3.4,0,0,0,0,.45l4.41,28.68H120l5.36-28.58a3,3,0,0,0-2.39-3.5,3.41,3.41,0,0,0-.55-.05Z" transform="translate(0 0)" fill="#fff"/><path d="M278.71,362.92H249.52a3,3,0,0,0-3,3,2.38,2.38,0,0,0,0,.46L251,395.05H276.3l5.36-28.58a3,3,0,0,0-2.4-3.49,2.57,2.57,0,0,0-.55-.06Z" transform="translate(0 0)" fill="#fff"/><rect x="83.14" y="537.75" width="15.18" height="7.59" fill="#fff"/><rect x="114.14" y="537.75" width="15.18" height="7.59" fill="#fff"/><rect x="145.14" y="537.75" width="15.18" height="7.59" fill="#fff"/><circle cx="211.89" cy="201.98" r="20.17" fill="#fff"/><circle cx="259.28" cy="209.04" r="20.17" fill="#fff"/><circle cx="259.28" cy="204" r="20.17" fill="#fff"/><circle cx="259.28" cy="209.04" r="20.17" fill="#fff"/><rect x="45.52" y="262.45" width="274.25" height="14.17" fill="#e6e6e6"/><rect x="45.52" y="412.69" width="274.25" height="14.17" fill="#e6e6e6"/><rect x="45.52" y="562.92" width="274.25" height="14.17" fill="#e6e6e6"/><rect x="45.52" y="337.57" width="274.25" height="14.17" fill="#e6e6e6"/><rect x="45.52" y="487.8" width="274.25" height="14.17" fill="#e6e6e6"/><rect x="45.52" y="194.9" width="274.25" height="14.17" fill="#e6e6e6"/></svg>