<svg xmlns="http://www.w3.org/2000/svg" viewBox="0 0 340 593"><title>undraw_bookshelves_re_lxoy</title><path d="M268.43,450.57a24.29,24.29,0,0,1,9.74-30.08c1.65-1,.14-3.6-1.51-2.59a27,27,0,0,0-10.82,34.19c.75,1.77,3.34.24,2.59-1.52Z" fill="#3f3d56"/><path d="M269.28,454.61c-4-7.17-3.09-15.75-1.63-23.5,1.51-8.09,3.51-16.31,1.78-24.54a22.5,22.5,0,0,0-5.35-10.73c-1.31-1.43-3.43.7-2.12,2.12,5.09,5.53,5.68,13.54,4.85,20.66-1,8.4-3.73,16.59-3.39,25.12a27.21,27.21,0,0,0,3.27,12.38,1.5,1.5,0,0,0,2.59-1.51Z" fill="#3f3d56"/><path d="M291,477.5H240a4.51,4.51,0,0,1-4.5-4.5V458A14.53,14.53,0,0,1,250,443.5h7.48A1.5,1.5,0,0,0,259,442v-7a2.5,2.5,0,0,1,2.5-2.5h8A2.5,2.5,0,0,1,272,435v7a1.5,1.5,0,0,0,1.5,1.5H281A14.53,14.53,0,0,1,295.5,458v15A4.51,4.51,0,0,1,291,477.5Z" fill="#ccc"/><path d="M266.28,387.54c1.08,5.7-.25,10.73-3,11.24s-5.78-3.69-6.85-9.39,2.23-15.17,2.23-15.17S265.21,381.84,266.28,387.54Z" fill="#6c63ff"/><path d="M286.88,414.05c-3.4,4.7-8,7.19-10.21,5.58s-1.29-6.74,2.11-11.44,12.55-8.82,12.55-8.82S290.28,409.35,286.88,414.05Z" fill="#6c63ff"/><path d="M174.43,90.57a24.29,24.29,0,0,1,9.74-30.08c1.65-1,.14-3.6-1.51-2.59a27,27,0,0,0-10.82,34.19c.75,1.77,3.34.24,2.59-1.52Z" fill="#3f3d56"/><path d="M175.28,94.61c-4-7.17-3.09-15.75-1.63-23.5,1.51-8.09,3.51-16.31,1.78-24.54a22.5,22.5,0,0,0-5.35-10.73c-1.31-1.43-3.43.7-2.12,2.12,5.09,5.53,5.68,13.54,4.85,20.66-1,8.4-3.73,16.59-3.39,25.12a27.21,27.21,0,0,0,3.27,12.38,1.5,1.5,0,0,0,2.59-1.51Z" fill="#3f3d56"/><path d="M197,117.5H146a4.51,4.51,0,0,1-4.5-4.5V98A14.53,14.53,0,0,1,156,83.5h7.48A1.5,1.5,0,0,0,165,82V75a2.5,2.5,0,0,1,2.5-2.5h8A2.5,2.5,0,0,1,178,75v7a1.5,1.5,0,0,0,1.5,1.5H187A14.53,14.53,0,0,1,201.5,98v15A4.51,4.51,0,0,1,197,117.5Z" fill="#ccc"/><path d="M172.28,27.54c1.08,5.7-.25,10.73-3,11.24s-5.78-3.69-6.85-9.39,2.23-15.17,2.23-15.17S171.21,21.84,172.28,27.54Z" fill="#6c63ff"/><path d="M192.88,54.05c-3.4,4.7-8,7.19-10.21,5.58s-1.29-6.74,2.11-11.44,12.55-8.82,12.55-8.82S196.28,49.35,192.88,54.05Z" fill="#6c63ff"/><path d="M323,593H17A17,17,0,0,1,0,576V17A17,17,0,0,1,17,0H323a17,17,0,0,1,17,17V576A17,17,0,0,1,323,593ZM17,2A15,15,0,0,0,2,17V576a15,15,0,0,0,15,15H323a15,15,0,0,0,15-15V17A15,15,0,0,0,323,2Z" fill="#3f3d56"/><rect x="1" y="115.45" width="338" height="2" fill="#3f3d56"/><rect x="1" y="235.48" width="338" height="2" fill="#3f3d56"/><rect x="1" y="355.52" width="338" height="2" fill="#3f3d56"/><rect x="1" y="475.55" width="338" height="2" fill="#3f3d56"/></svg>