<svg xmlns="http://www.w3.org/2000/svg" viewBox="0 0 413.25 344.44"><title>error-500</title><path d="M400,210.35l5.89-9.49-2.9-1.8a2.67,2.67,0,0,1-1.24-2.5,15.54,15.54,0,0,0,.06-1.67,2.64,2.64,0,0,1,1.38-2.41l3-1.62L400.93,181l-3,1.61a2.62,2.62,0,0,1-2.77-.18c-.46-.32-.94-.61-1.42-.88a2.65,2.65,0,0,1-1.4-2.4l.11-3.42-11.17-.35-.1,3.43a2.66,2.66,0,0,1-1.56,2.31l-.73.37-.71.41a2.65,2.65,0,0,1-2.78,0l-2.93-1.81-5.88,9.49,2.91,1.8a2.66,2.66,0,0,1,1.23,2.5,15.54,15.54,0,0,0-.06,1.67,2.62,2.62,0,0,1-1.38,2.4l-3,1.62,5.28,9.85,3-1.62a2.66,2.66,0,0,1,2.77.18,15.87,15.87,0,0,0,1.42.87,2.66,2.66,0,0,1,1.4,2.41l-.11,3.42,11.17.35.1-3.43a2.66,2.66,0,0,1,1.55-2.3l.74-.37c.25-.13.49-.27.72-.41a2.67,2.67,0,0,1,2.79,0Zm-9.45-7a9.15,9.15,0,1,1,3.75-12.39A9.14,9.14,0,0,1,390.56,203.3Z" transform="translate(-43.37 -125.67)" fill="#ebebeb"/><path d="M125.82,258l5.89-9.49-2.91-1.8a2.66,2.66,0,0,1-1.23-2.5,13.25,13.25,0,0,0,.05-1.67,2.67,2.67,0,0,1,1.39-2.41l3-1.62-5.28-9.84-3,1.61a2.66,2.66,0,0,1-2.78-.17,12.92,12.92,0,0,0-1.42-.88,2.65,2.65,0,0,1-1.39-2.41l.1-3.42-11.16-.35-.1,3.43a2.66,2.66,0,0,1-1.56,2.31l-.73.37c-.25.13-.48.27-.72.41a2.63,2.63,0,0,1-2.77,0l-2.93-1.81-5.89,9.49,2.92,1.81a2.67,2.67,0,0,1,1.23,2.5,15.26,15.26,0,0,0-.06,1.66,2.64,2.64,0,0,1-1.38,2.4l-3,1.62,5.28,9.85,3-1.62a2.66,2.66,0,0,1,2.77.18,14.87,14.87,0,0,0,1.41.87A2.65,2.65,0,0,1,106,259l-.11,3.43,11.16.34.11-3.42a2.65,2.65,0,0,1,1.55-2.31c.25-.11.5-.24.74-.37l.72-.41a2.65,2.65,0,0,1,2.78,0ZM116.37,251a9.15,9.15,0,1,1,3.75-12.38A9.14,9.14,0,0,1,116.37,251Z" transform="translate(-43.37 -125.67)" fill="#ebebeb"/><path d="M227.44,136l-3.91-6.78-2.07,1.2a1.87,1.87,0,0,1-2-.06,11.53,11.53,0,0,0-1-.59,1.85,1.85,0,0,1-1-1.65v-2.4h-7.83v2.4a1.85,1.85,0,0,1-1,1.65,9.19,9.19,0,0,0-1,.59,1.87,1.87,0,0,1-1.95.06l-2.08-1.2L199.66,136l2.09,1.2a1.87,1.87,0,0,1,.91,1.73c0,.19,0,.38,0,.57s0,.39,0,.58a1.88,1.88,0,0,1-.91,1.72l-2.09,1.2,3.91,6.78,2.08-1.2a1.85,1.85,0,0,1,1.95.07,11.41,11.41,0,0,0,1,.58,1.86,1.86,0,0,1,1,1.66v2.39h7.83v-2.39a1.86,1.86,0,0,1,1-1.66,9.12,9.12,0,0,0,1-.58,1.85,1.85,0,0,1,1.95-.07l2.08,1.2,3.91-6.78-2.08-1.2a1.87,1.87,0,0,1-.91-1.72c0-.19,0-.38,0-.58s0-.38,0-.57a1.86,1.86,0,0,1,.92-1.73Zm-7.48,3.5a6.41,6.41,0,1,1-6.4-6.41A6.4,6.4,0,0,1,220,139.45Z" transform="translate(-43.37 -125.67)" fill="#ebebeb"/><polygon points="0 257.47 51.66 257.23 103.31 257.14 206.63 256.97 309.94 257.14 361.6 257.23 413.25 257.47 361.6 257.72 309.94 257.8 206.63 257.97 103.31 257.8 51.66 257.71 0 257.47" fill="#263238"/><ellipse cx="206.63" cy="323.37" rx="149.06" ry="21.08" fill="#ebebeb"/><rect x="191.71" y="188.17" width="35.51" height="2.91" fill="#37474f"/><rect x="191.71" y="191.96" width="35.51" height="2.91" fill="#37474f"/><rect x="191.71" y="195.75" width="35.51" height="2.91" fill="#37474f"/><rect x="191.71" y="199.54" width="35.51" height="2.91" fill="#37474f"/><rect x="191.71" y="203.33" width="35.51" height="2.91" fill="#37474f"/><rect x="175.08" y="278.92" width="67.52" height="2.91" fill="#37474f"/><rect x="175.08" y="282.71" width="67.52" height="2.91" fill="#37474f"/><rect x="175.08" y="286.5" width="67.52" height="2.91" fill="#37474f"/><rect x="175.08" y="290.29" width="67.52" height="2.91" fill="#37474f"/><rect x="175.08" y="294.08" width="67.52" height="2.91" fill="#37474f"/><path d="M188.83,289.8c0-.39-14.77-5.36-14.77-5.36l.87-50.88,19.64-4.22Z" transform="translate(-43.37 -125.67)" fill="#ffc727"/><path d="M188.83,289.8c0-.39-14.77-5.36-14.77-5.36l.87-50.88,19.64-4.22Z" transform="translate(-43.37 -125.67)" opacity="0.2"/><path d="M324.49,309.77c.1-.38,15.72.06,15.72.06l16.69-48.08-17-10.71Z" transform="translate(-43.37 -125.67)" fill="#ffc727"/><path d="M324.49,309.77c.1-.38,15.72.06,15.72.06l16.69-48.08-17-10.71Z" transform="translate(-43.37 -125.67)" opacity="0.2"/><path d="M186,308.54s5.49-82.3,10.31-109.38c0,0,99.42,7.52,153.09,28,0,0-27.67,96.12-29.1,100.89C320.28,328.09,250.27,314.3,186,308.54Z" transform="translate(-43.37 -125.67)" fill="#ffc727"/><path d="M274.72,210.15q-2.42,14.86-4.94,29.72l-5.13,29.67-.27-.41L297.69,277l16.64,4,16.61,4.11-16.7-3.74-16.69-3.81-33.34-7.79-.34-.08.06-.34,5.31-29.65Q271.91,225,274.72,210.15Z" transform="translate(-43.37 -125.67)" opacity="0.1"/><path d="M271.07,215.8a2,2,0,0,1-1.75,1.94,2,2,0,0,1-1.46-.48,2,2,0,0,1-.66-1.46,2,2,0,0,1,.66-1.46,1.94,1.94,0,0,1,3.21,1.46Zm0,0a1.6,1.6,0,0,0-.55-1.19,1.57,1.57,0,1,0,0,2.39A1.64,1.64,0,0,0,271.07,215.8Z" transform="translate(-43.37 -125.67)" opacity="0.1"/><path d="M269.32,228.05a1.93,1.93,0,0,1-1.74,1.93,1.92,1.92,0,0,1-2.12-1.93,1.94,1.94,0,0,1,.65-1.46,2,2,0,0,1,1.47-.48A2,2,0,0,1,269.32,228.05Zm0,0a1.6,1.6,0,0,0-.55-1.2,1.57,1.57,0,0,0-1.19-.36,1.57,1.57,0,0,0,0,3.12,1.56,1.56,0,0,0,1.74-1.56Z" transform="translate(-43.37 -125.67)" opacity="0.1"/><path d="M267.17,241a1.93,1.93,0,0,1-1.74,1.93,2,2,0,0,1-1.47-3.4,2,2,0,0,1,1.47-.47A1.94,1.94,0,0,1,267.17,241Zm0,0a1.6,1.6,0,0,0-.55-1.2,1.57,1.57,0,0,0-1.19-.36,1.57,1.57,0,0,0,0,3.12,1.62,1.62,0,0,0,1.19-.37A1.56,1.56,0,0,0,267.17,241Z" transform="translate(-43.37 -125.67)" opacity="0.1"/><path d="M265,253.93a1.94,1.94,0,0,1-1.74,1.93,1.94,1.94,0,1,1,0-3.87A1.94,1.94,0,0,1,265,253.93Zm0,0a1.6,1.6,0,0,0-.55-1.2,1.57,1.57,0,0,0-1.19-.36,1.57,1.57,0,0,0,0,3.12,1.62,1.62,0,0,0,1.19-.37A1.6,1.6,0,0,0,265,253.93Z" transform="translate(-43.37 -125.67)" opacity="0.1"/><path d="M272.35,274.56a1.94,1.94,0,1,1-1.75-1.93A1.94,1.94,0,0,1,272.35,274.56Zm0,0a1.64,1.64,0,0,0-.55-1.2,1.62,1.62,0,0,0-1.2-.36,1.57,1.57,0,1,0,1.2,2.76A1.64,1.64,0,0,0,272.35,274.56Z" transform="translate(-43.37 -125.67)" opacity="0.1"/><path d="M284.56,277.54a1.94,1.94,0,0,1-3.21,1.46,1.94,1.94,0,0,1,0-2.92,2,2,0,0,1,1.46-.47A1.93,1.93,0,0,1,284.56,277.54Zm0,0a1.6,1.6,0,0,0-.55-1.2,1.62,1.62,0,0,0-1.2-.36,1.57,1.57,0,1,0,1.2,2.76A1.6,1.6,0,0,0,284.56,277.54Z" transform="translate(-43.37 -125.67)" opacity="0.1"/><path d="M296.77,280.52a1.93,1.93,0,0,1-3.2,1.46,2,2,0,0,1-.66-1.46,1.94,1.94,0,0,1,.65-1.46,2,2,0,0,1,1.47-.47A1.93,1.93,0,0,1,296.77,280.52Zm0,0a1.59,1.59,0,0,0-.54-1.2A1.64,1.64,0,0,0,295,279a1.57,1.57,0,0,0,0,3.12,1.55,1.55,0,0,0,1.74-1.56Z" transform="translate(-43.37 -125.67)" opacity="0.1"/><path d="M309,283.5a1.94,1.94,0,0,1-3.21,1.46,2,2,0,0,1-.66-1.46,2,2,0,0,1,.66-1.46,2,2,0,0,1,1.46-.48A2,2,0,0,1,309,283.5Zm0,0a1.64,1.64,0,0,0-.55-1.2,1.57,1.57,0,1,0-1.2,2.76,1.62,1.62,0,0,0,1.2-.36A1.64,1.64,0,0,0,309,283.5Z" transform="translate(-43.37 -125.67)" opacity="0.1"/><path d="M321.2,286.61a2,2,0,0,1-1.89,1.79,2,2,0,0,1-1.43-.58,1.95,1.95,0,0,1,.23-2.91,1.92,1.92,0,0,1,1.49-.36A2,2,0,0,1,321.2,286.61Zm0,0a1.6,1.6,0,0,0-.46-1.23,1.57,1.57,0,1,0-.18,2.38A1.6,1.6,0,0,0,321.2,286.61Z" transform="translate(-43.37 -125.67)" opacity="0.1"/><path d="M262.87,266.86a1.94,1.94,0,0,1-1.74,1.94,2.05,2.05,0,0,1-1.47-.47,1.94,1.94,0,0,1,1.47-3.4A1.94,1.94,0,0,1,262.87,266.86Zm0,0a1.6,1.6,0,0,0-.55-1.19,1.57,1.57,0,1,0,0,2.39A1.6,1.6,0,0,0,262.87,266.86Z" transform="translate(-43.37 -125.67)" opacity="0.1"/><circle cx="223.43" cy="267.31" r="28.23" transform="translate(-164.81 92.26) rotate(-41.96)" opacity="0.2"/><circle cx="223.43" cy="267.31" r="22.64" transform="translate(-149.04 255.97) rotate(-69.27)" fill="#263238"/><rect x="216.31" y="258.54" width="5.36" height="5.36" transform="translate(1.22 -157.33) rotate(9.2)" fill="#ffc727"/><rect x="211.87" y="252.39" width="5.36" height="5.36" transform="translate(0.18 -156.7) rotate(9.2)" fill="#ffc727"/><rect x="233.04" y="255.82" width="5.36" height="5.36" transform="translate(1 -160.04) rotate(9.2)" fill="#ffc727"/><rect x="208.46" y="273.44" width="5.36" height="5.36" transform="translate(3.5 -155.88) rotate(9.2)" fill="#ffc727"/><rect x="229.63" y="276.87" width="5.36" height="5.36" transform="translate(4.32 -159.23) rotate(9.2)" fill="#ffc727"/><rect x="214.61" y="269" width="5.36" height="5.36" transform="translate(2.87 -156.92) rotate(9.2)" fill="#ffc727"/><rect x="220.75" y="264.63" width="5.36" height="5.36" transform="translate(2.25 -157.96) rotate(9.2)" fill="#ffc727"/><rect x="226.89" y="260.25" width="5.36" height="5.36" transform="translate(1.63 -159) rotate(9.2)" fill="#ffc727"/><rect x="225.2" y="270.72" width="5.36" height="5.36" transform="translate(3.29 -158.6) rotate(9.2)" fill="#ffc727"/><circle cx="299.19" cy="279.14" r="28.23" transform="translate(-149.73 207.96) rotate(-50.67)" fill="#ffc727"/><circle cx="299.19" cy="279.14" r="28.23" transform="translate(-149.73 207.96) rotate(-50.67)" opacity="0.2"/><path d="M326.66,285.67c-.13.56-.28,1.09-.44,1.63l-55-11.74c.13-1,.3-2,.53-2.95a28.24,28.24,0,1,1,54.94,13.06Z" transform="translate(-43.37 -125.67)" opacity="0.2"/><circle cx="299.19" cy="279.14" r="22.64" transform="translate(-127.86 11.25) rotate(-22.68)" fill="#263238"/><rect x="296.51" y="265.8" width="5.36" height="26.69" transform="translate(29.28 -187.29) rotate(13.37)" fill="#ffc727"/><path d="M328.3,285.14,270.5,271.4a29.71,29.71,0,0,1,57.8,13.74Z" transform="translate(-43.37 -125.67)" fill="#ffc727"/><path d="M328.3,285.14,270.5,271.4a29.71,29.71,0,0,1,57.8,13.74Z" transform="translate(-43.37 -125.67)" opacity="0.2"/><path d="M250.07,295.92a10.51,10.51,0,0,1,2.61-6.35,7.67,7.67,0,0,1,3.07-2.07,8.66,8.66,0,0,1,3.7-.41,6.9,6.9,0,0,1,5.8,4.33,11.49,11.49,0,0,1,.59,6.85,18,18,0,0,0-2-6.14,5.88,5.88,0,0,0-4.61-3.06,7.06,7.06,0,0,0-5.49,1.61A14.78,14.78,0,0,0,250.07,295.92Z" transform="translate(-43.37 -125.67)" opacity="0.1"/><path d="M193.72,238.34c.23-3,.57-6,.86-9s.65-6,1-9,.74-6,1.12-9,.81-6,1.22-9l.1-.8.81.05q9.78.61,19.51,1.61c3.24.33,6.48.71,9.72,1.12s6.47.9,9.68,1.48l-19.52-1.2-19.49-1.27.91-.74c-.44,3-.85,6-1.32,9s-.92,6-1.42,8.95-1,5.95-1.52,8.93S194.33,235.38,193.72,238.34Z" transform="translate(-43.37 -125.67)" fill="#fff"/><path d="M198.41,261.16a24.55,24.55,0,0,1,4.52-10.09c.55-.76,1.18-1.46,1.78-2.18s1.33-1.33,2-2,1.47-1.18,2.22-1.75,1.58-1,2.39-1.52,1.71-.83,2.57-1.22l2.68-.93,2.78-.57c.93-.14,1.87-.17,2.81-.24A27.3,27.3,0,0,1,233,242.76a38.59,38.59,0,0,0-10.78-.72,25.22,25.22,0,0,0-10.07,3.13,29.14,29.14,0,0,0-8.18,6.75A33.21,33.21,0,0,0,198.41,261.16Z" transform="translate(-43.37 -125.67)" fill="#fff"/><path d="M276.29,268.78a24.78,24.78,0,0,1,5.86-9.37c.65-.67,1.37-1.28,2.07-1.91s1.5-1.13,2.26-1.69,1.61-1,2.44-1.43,1.71-.8,2.58-1.17,1.8-.59,2.7-.86l2.79-.55,2.83-.18c.94,0,1.88.1,2.82.16a27.19,27.19,0,0,1,10.47,3.56,38.91,38.91,0,0,0-10.58-2.2,25.25,25.25,0,0,0-10.4,1.71,29.45,29.45,0,0,0-9,5.55A33.57,33.57,0,0,0,276.29,268.78Z" transform="translate(-43.37 -125.67)" fill="#fff"/><path d="M189.14,359.25c-7.23,0-23.06-1.62-33.25-14.72-13-16.76-8.32-48.92-8.12-50.28l5.66.86c0,.31-4.54,31.09,7,45.9,11.26,14.48,31.69,12.41,31.89,12.38l.65,5.69C192.72,359.1,191.32,359.25,189.14,359.25Z" transform="translate(-43.37 -125.67)" fill="#ffc727"/><path d="M189.14,359.25c-7.23,0-23.06-1.62-33.25-14.72-13-16.76-8.32-48.92-8.12-50.28l5.66.86c0,.31-4.54,31.09,7,45.9,11.26,14.48,31.69,12.41,31.89,12.38l.65,5.69C192.72,359.1,191.32,359.25,189.14,359.25Z" transform="translate(-43.37 -125.67)" fill="#fff" opacity="0.4"/><path d="M155.1,299a19,19,0,0,1-3.16-.25c-9.55-1.55-13.77-7.26-15.64-11.78S134,277,135,270.68l12.1,2c-.63,3.89-.44,7.32.52,9.65.69,1.66,2,3.66,6.26,4.35,1.94.31,4,.15,6.23-3.16a22.84,22.84,0,0,0,3.06-8.23l12.11,2a35.47,35.47,0,0,1-5,13C166.56,296,161.22,299,155.1,299Z" transform="translate(-43.37 -125.67)" fill="#ffc727"/><path d="M201.1,375.63c0-.26-10.26-1.89-10.26-1.89l-5-33.41,12.39-4.9Z" transform="translate(-43.37 -125.67)" fill="#ffc727"/><path d="M201.1,375.63c0-.26-10.26-1.89-10.26-1.89l-5-33.41,12.39-4.9Z" transform="translate(-43.37 -125.67)" opacity="0.2"/><path d="M302.3,375.69c0-.26,10.29-1.66,10.29-1.66l5.71-33.29L306,335.57Z" transform="translate(-43.37 -125.67)" fill="#ffc727"/><path d="M302.3,375.69c0-.26,10.29-1.66,10.29-1.66l5.71-33.29L306,335.57Z" transform="translate(-43.37 -125.67)" opacity="0.2"/><path d="M196.84,328s82.79-3.53,110.75,1.13c0,0-8.21,80.1-8.65,81.66,0,0-82.36-.23-95.23,0C203.71,410.74,196.74,357.47,196.84,328Z" transform="translate(-43.37 -125.67)" fill="#ffc727"/><path d="M222,349.91s45.19-1.79,60.46.56c0,0-4.49,40.39-4.73,41.18,0,0-45-.11-52,0C225.74,391.65,222.65,364,222,349.91Z" transform="translate(-43.37 -125.67)" opacity="0.2"/><path d="M228.16,391.63l-2.43,0S222.65,364,222,349.9l2.83-.1Z" transform="translate(-43.37 -125.67)" opacity="0.2"/><path d="M241.49,359.87a4.81,4.81,0,1,0,3.14,6A4.81,4.81,0,0,0,241.49,359.87Zm2.58,5.86a4.22,4.22,0,1,1-2.75-5.3A4.22,4.22,0,0,1,244.07,365.73Zm-2.58-5.86a4.81,4.81,0,1,0,3.14,6A4.81,4.81,0,0,0,241.49,359.87Zm2.58,5.86a4.22,4.22,0,1,1-2.75-5.3A4.22,4.22,0,0,1,244.07,365.73Zm-2.58-5.86a4.81,4.81,0,1,0,3.14,6A4.81,4.81,0,0,0,241.49,359.87Zm2.58,5.86a4.22,4.22,0,1,1-2.75-5.3A4.22,4.22,0,0,1,244.07,365.73Zm-1-10.94a10.13,10.13,0,1,0,6.61,12.71A10.14,10.14,0,0,0,243.1,354.79Zm2.25,11.34a5.56,5.56,0,1,1-3.63-7A5.57,5.57,0,0,1,245.35,366.13Zm-.72-.23a4.81,4.81,0,1,0-6,3.14A4.8,4.8,0,0,0,244.63,365.9Zm-.56-.17a4.22,4.22,0,1,1-2.75-5.3A4.22,4.22,0,0,1,244.07,365.73Zm-2.58-5.86a4.81,4.81,0,1,0,3.14,6A4.81,4.81,0,0,0,241.49,359.87Zm2.58,5.86a4.22,4.22,0,1,1-2.75-5.3A4.22,4.22,0,0,1,244.07,365.73Zm-2.58-5.86a4.81,4.81,0,1,0,3.14,6A4.81,4.81,0,0,0,241.49,359.87Zm2.58,5.86a4.22,4.22,0,1,1-2.75-5.3A4.22,4.22,0,0,1,244.07,365.73Z" transform="translate(-43.37 -125.67)" fill="#ffc727"/><polygon points="195.61 248.63 191.9 247.46 191.28 250.16 194.58 251.2 195.61 248.63" fill="#ffc727"/><polygon points="188.94 245.15 187.14 241.7 184.79 243.16 186.39 246.24 188.94 245.15" fill="#ffc727"/><polygon points="186.68 237.97 187.85 234.26 185.15 233.63 184.11 236.94 186.68 237.97" fill="#ffc727"/><polygon points="190.16 231.29 193.61 229.49 192.15 227.15 189.07 228.75 190.16 231.29" fill="#ffc727"/><polygon points="197.34 229.03 201.05 230.2 201.68 227.51 198.37 226.47 197.34 229.03" fill="#ffc727"/><polygon points="204.02 232.51 205.81 235.97 208.16 234.5 206.56 231.43 204.02 232.51" fill="#ffc727"/><polygon points="206.28 239.7 205.11 243.41 207.8 244.03 208.84 240.73 206.28 239.7" fill="#ffc727"/><polygon points="202.8 246.37 199.34 248.17 200.81 250.52 203.88 248.92 202.8 246.37" fill="#ffc727"/><path d="M257.84,374a3.24,3.24,0,1,0,.94,4.48A3.24,3.24,0,0,0,257.84,374Zm.61,4.26a2.84,2.84,0,1,1-.83-3.93A2.84,2.84,0,0,1,258.45,378.27Zm-.61-4.26a3.24,3.24,0,1,0,.94,4.48A3.24,3.24,0,0,0,257.84,374Zm.61,4.26a2.84,2.84,0,1,1-.83-3.93A2.84,2.84,0,0,1,258.45,378.27Zm-.61-4.26a3.24,3.24,0,1,0,.94,4.48A3.24,3.24,0,0,0,257.84,374Zm.61,4.26a2.84,2.84,0,1,1-.83-3.93A2.84,2.84,0,0,1,258.45,378.27Zm1.34-7.26a6.82,6.82,0,1,0,2,9.44A6.82,6.82,0,0,0,259.79,371Zm-.59,7.75a3.74,3.74,0,1,1-1.09-5.17A3.74,3.74,0,0,1,259.2,378.76Zm-.42-.27a3.23,3.23,0,1,0-4.48.95A3.25,3.25,0,0,0,258.78,378.49Zm-.33-.22a2.84,2.84,0,1,1-.83-3.93A2.84,2.84,0,0,1,258.45,378.27Zm-.61-4.26a3.24,3.24,0,1,0,.94,4.48A3.24,3.24,0,0,0,257.84,374Zm.61,4.26a2.84,2.84,0,1,1-.83-3.93A2.84,2.84,0,0,1,258.45,378.27Zm-.61-4.26a3.24,3.24,0,1,0,.94,4.48A3.24,3.24,0,0,0,257.84,374Zm.61,4.26a2.84,2.84,0,1,1-.83-3.93A2.84,2.84,0,0,1,258.45,378.27Z" transform="translate(-43.37 -125.67)" fill="#dbdbdb"/><polygon points="210.23 257.25 208.03 255.82 207.14 257.45 209.09 258.72 210.23 257.25" fill="#dbdbdb"/><polygon points="206.53 253.78 205.98 251.22 204.2 251.74 204.68 254.03 206.53 253.78" fill="#dbdbdb"/><polygon points="206.36 248.72 207.79 246.52 206.15 245.63 204.88 247.58 206.36 248.72" fill="#dbdbdb"/><polygon points="209.82 245.01 212.39 244.47 211.86 242.69 209.58 243.17 209.82 245.01" fill="#dbdbdb"/><polygon points="214.89 244.85 217.09 246.28 217.98 244.64 216.02 243.37 214.89 244.85" fill="#dbdbdb"/><polygon points="218.59 248.31 219.13 250.88 220.92 250.35 220.44 248.07 218.59 248.31" fill="#dbdbdb"/><polygon points="218.76 253.38 217.33 255.58 218.96 256.47 220.23 254.51 218.76 253.38" fill="#dbdbdb"/><polygon points="215.29 257.08 212.73 257.62 213.25 259.41 215.53 258.93 215.29 257.08" fill="#dbdbdb"/><polygon points="262.22 275.74 265.4 276.33 274.5 214.71 270.88 214.04 262.22 275.74" fill="#ffc727"/><path d="M277.72,391.65l4.73-41.18,31.8-10.76s-8.66,62.37-8.66,61.7Z" transform="translate(-43.37 -125.67)" fill="#ffc727"/><path d="M277.72,391.65l4.73-41.18,31.8-10.76s-8.66,62.37-8.66,61.7Z" transform="translate(-43.37 -125.67)" fill="#fff" opacity="0.4"/><path d="M200.64,352.14c-.52-3.41-.8-6.85-1-10.29-.1-1.72-.14-3.45-.18-5.17s-.06-3.45,0-5.18v-.45l.44,0c6.32-.34,12.63-.76,19-1s12.64-.6,19-.8c-6.31.57-12.61,1.06-18.92,1.52s-12.63.84-18.94,1.27l.46-.47,0,5.15.06,5.15c0,1.72,0,3.44.09,5.15Z" transform="translate(-43.37 -125.67)" fill="#fff"/><path d="M286.88,351.08q3-1.41,6-2.61t6.12-2.32c2.06-.7,4.13-1.39,6.24-2a57.54,57.54,0,0,1,6.39-1.49l.53-.09-.09.51c-.5,2.67-1,5.33-1.64,8,.23-2.71.56-5.41.9-8.1l.44.43c-2.1.5-4.18,1.08-6.26,1.7s-4.15,1.27-6.21,1.94Z" transform="translate(-43.37 -125.67)" fill="#fff"/><polygon points="171.03 202.45 171.56 212.75 172.02 223.05 172.82 243.66 173.44 264.27 173.69 274.58 173.86 284.89 173.32 274.6 172.86 264.29 172.07 243.69 171.45 223.07 171.2 212.76 171.03 202.45" opacity="0.1"/><path d="M211.45,334.33a1.93,1.93,0,0,1-2.85,2.07,2,2,0,0,1-.58-2.87,2,2,0,0,1,1.34-.75A1.94,1.94,0,0,1,211.45,334.33Zm0,0a1.56,1.56,0,1,0-.3,1.28A1.56,1.56,0,0,0,211.45,334.33Z" transform="translate(-43.37 -125.67)" opacity="0.1"/><path d="M212.16,346.68a2,2,0,0,1-1.33,2.24,1.93,1.93,0,0,1-2.46-1.48,2,2,0,0,1,.36-1.56,2,2,0,0,1,1.34-.75A1.94,1.94,0,0,1,212.16,346.68Zm0,0a1.54,1.54,0,0,0-2-1.18,1.57,1.57,0,1,0,2,1.18Z" transform="translate(-43.37 -125.67)" opacity="0.1"/><path d="M212.61,359.79a2,2,0,0,1-1.33,2.24,2,2,0,0,1-1.52-.17,2,2,0,0,1-.94-1.31,2,2,0,0,1,.36-1.56,1.93,1.93,0,0,1,3.43.8Zm0,0a1.54,1.54,0,0,0-2-1.18,1.57,1.57,0,1,0,2,1.18Z" transform="translate(-43.37 -125.67)" opacity="0.1"/><path d="M213.06,372.9a2,2,0,0,1-1.33,2.24,2,2,0,0,1-2.46-1.48,2,2,0,0,1,.36-1.56,1.93,1.93,0,0,1,3.43.8Zm0,0a1.6,1.6,0,0,0-.77-1.07,1.66,1.66,0,0,0-1.25-.12,1.57,1.57,0,0,0,.62,3.06,1.61,1.61,0,0,0,1.1-.59A1.58,1.58,0,0,0,213.06,372.9Z" transform="translate(-43.37 -125.67)" opacity="0.1"/><path d="M213.51,386a1.93,1.93,0,0,1-2.85,2.07,2,2,0,0,1-.94-1.3,2,2,0,0,1,.36-1.57,2,2,0,0,1,1.34-.75A2,2,0,0,1,213.51,386Zm0,0a1.56,1.56,0,0,0-2-1.18,1.57,1.57,0,0,0,.62,3.06,1.56,1.56,0,0,0,1.4-1.88Z" transform="translate(-43.37 -125.67)" opacity="0.1"/><path d="M214,399.11a1.93,1.93,0,1,1-3.79.77,1.94,1.94,0,0,1,1.7-2.32A2,2,0,0,1,214,399.11Zm0,0a1.58,1.58,0,0,0-.77-1.06,1.62,1.62,0,0,0-1.25-.12,1.57,1.57,0,0,0,.62,3.06,1.56,1.56,0,0,0,1.4-1.88Z" transform="translate(-43.37 -125.67)" opacity="0.1"/><rect x="170.93" y="426.13" width="48.98" height="5.72" transform="translate(-159.4 -50.55) rotate(-16.86)" fill="#ffc727"/><rect x="170.93" y="426.13" width="48.98" height="5.72" transform="translate(-159.4 -50.55) rotate(-16.86)" fill="#fff" opacity="0.4"/><rect x="191.27" y="424.75" width="5.72" height="8.5" transform="translate(-164.27 -46.65) rotate(-17.64)" fill="#ffc727"/><polygon points="129.05 321.19 116.96 268.81 80.45 277.47 98.42 328.52 129.05 321.19" fill="#ffc727"/><polygon points="137.15 318.53 129.05 321.19 116.96 268.81 128.61 271.59 137.15 318.53" fill="#ffc727"/><polygon points="137.15 318.53 129.05 321.19 116.96 268.81 128.61 271.59 137.15 318.53" opacity="0.2"/><circle cx="175.49" cy="296.22" r="6.21" fill="#ffc727"/><rect x="302.54" y="404.41" width="5.72" height="48.98" transform="translate(-237.36 470.07) rotate(-73.02)" fill="#ffc727"/><rect x="302.54" y="404.41" width="5.72" height="48.98" transform="translate(-237.36 470.07) rotate(-73.02)" fill="#fff" opacity="0.4"/><rect x="302.44" y="426.04" width="8.5" height="5.72" transform="translate(-238.73 464.38) rotate(-72.23)" fill="#ffc727"/><polygon points="284.98 321.15 297.19 268.79 333.68 277.53 315.6 328.54 284.98 321.15" fill="#ffc727"/><polygon points="276.89 318.47 284.98 321.15 297.19 268.79 285.53 271.54 276.89 318.47" fill="#ffc727"/><polygon points="276.89 318.47 284.98 321.15 297.19 268.79 285.53 271.54 276.89 318.47" opacity="0.2"/><path d="M275.76,421.74a6.22,6.22,0,1,0,6.23-6.2A6.21,6.21,0,0,0,275.76,421.74Z" transform="translate(-43.37 -125.67)" fill="#ffc727"/><path d="M322.66,357.13c.15-.14,15.21-14.1,32.92-9.32,18.11,4.88,33.06,32.16,33.21,32.44l5-2.72c-.66-1.21-16.26-29.73-36.76-35.25-20.86-5.62-37.65,10-38.35,10.7Z" transform="translate(-43.37 -125.67)" fill="#ffc727"/><path d="M322.66,357.13c.15-.14,15.21-14.1,32.92-9.32,18.11,4.88,33.06,32.16,33.21,32.44l5-2.72c-.66-1.21-16.26-29.73-36.76-35.25-20.86-5.62-37.65,10-38.35,10.7Z" transform="translate(-43.37 -125.67)" fill="#fff" opacity="0.4"/><path d="M382.12,407.71,393,402a23,23,0,0,1-2.51-8.42c-.24-4,1.34-5.36,3.07-6.28,3.8-2,6.07-1.21,7.62-.3,2.17,1.29,4.38,3.91,6.22,7.4l10.85-5.73c-3-5.62-6.62-9.74-10.84-12.23s-11-4.5-19.57,0c-6.67,3.52-10.07,9.86-9.59,17.86A35.5,35.5,0,0,0,382.12,407.71Z" transform="translate(-43.37 -125.67)" fill="#ffc727"/><path d="M325,338c2.35-1.62,4.76-3.15,7.17-4.67s4.86-3,7.31-4.44,4.92-2.87,7.42-4.24l3.76-2.05c1.27-.65,2.52-1.33,3.81-2-1.17.82-2.38,1.59-3.56,2.38l-3.62,2.29c-2.41,1.53-4.85,3-7.3,4.44s-4.93,2.87-7.43,4.24S327.51,336.75,325,338Z" transform="translate(-43.37 -125.67)" fill="#263238"/><path d="M318.72,361.42c3.37,1.92,6.56,4.09,9.71,6.31s6.21,4.56,9.12,7.12a115.22,115.22,0,0,1-9.71-6.31C324.72,366.29,321.63,364,318.72,361.42Z" transform="translate(-43.37 -125.67)" fill="#263238"/><path d="M324.25,358.54c2.6.79,5.16,1.69,7.71,2.59S337,363,339.57,364s5,2,7.52,3l3.74,1.6c1.23.57,2.47,1.11,3.69,1.7-1.3-.38-2.58-.83-3.87-1.24l-3.83-1.34c-2.56-.9-5.09-1.87-7.61-2.84s-5-2-7.53-3S326.7,359.72,324.25,358.54Z" transform="translate(-43.37 -125.67)" fill="#263238"/><path d="M331.63,340.22c2.49-.65,5-1.19,7.51-1.71s5-1,7.56-1.45,5.05-.86,7.59-1.22l3.81-.53c1.28-.14,2.55-.31,3.84-.42-1.25.33-2.5.6-3.75.91l-3.76.8c-2.51.53-5,1-7.56,1.45s-5.06.86-7.6,1.21S334.19,340,331.63,340.22Z" transform="translate(-43.37 -125.67)" fill="#263238"/><path d="M271.62,355.79a26.61,26.61,0,0,1,2-5.88,23.77,23.77,0,0,1,3.31-5.28,12.8,12.8,0,0,1,5-3.75,8.85,8.85,0,0,1,6.31.06,8.4,8.4,0,0,1,4.51,4.47,9.83,9.83,0,0,1,.84,3.11,7,7,0,0,1-.37,3.27,2.94,2.94,0,0,1-1.1,1.41,2.14,2.14,0,0,1-.91.34,2,2,0,0,1-1-.09,2.81,2.81,0,0,1-1.29-1.31,7.28,7.28,0,0,1-.59-1.54,20.11,20.11,0,0,1-.52-6.31,25.87,25.87,0,0,1,3.64-12,15.64,15.64,0,0,1,4.34-4.61,13.14,13.14,0,0,1,5.89-2.28,16.51,16.51,0,0,1,3.14-.27,9.25,9.25,0,0,1,1.58.1,10.26,10.26,0,0,1,1.56.21,19.16,19.16,0,0,1,5.86,2.21,24.69,24.69,0,0,1,4.9,3.85,26.13,26.13,0,0,1,3.86,4.85,27,27,0,0,0-9-8.27,18.75,18.75,0,0,0-5.73-2,20.94,20.94,0,0,0-3-.23,15.94,15.94,0,0,0-3,.33,13,13,0,0,0-5.53,2.23,14.65,14.65,0,0,0-4.06,4.38,25,25,0,0,0-3.43,11.54,19.31,19.31,0,0,0,.45,6c.24.92.67,2,1.3,2.24a1.32,1.32,0,0,0,.23.05,1,1,0,0,0,.3,0,1.25,1.25,0,0,0,.53-.19,2.08,2.08,0,0,0,.76-1,6,6,0,0,0,.33-2.83,9.38,9.38,0,0,0-.75-2.85,7.82,7.82,0,0,0-4-4.11,8.16,8.16,0,0,0-5.8-.18,12.46,12.46,0,0,0-4.88,3.48A27,27,0,0,0,271.62,355.79Z" transform="translate(-43.37 -125.67)" fill="#263238"/><path d="M179.22,381.7a14,14,0,0,1,4-4.63,15,15,0,0,1,5.6-2.69,12.05,12.05,0,0,1,6.25.13,12.48,12.48,0,0,1,5.34,3.32,15.79,15.79,0,0,1,3.34,5.33,14.64,14.64,0,0,1,1,6.23,5.24,5.24,0,0,1-1.16,3.12,2.44,2.44,0,0,1-1.69.76,3.7,3.7,0,0,1-1.72-.39,2.83,2.83,0,0,1-1.24-1.32,4.37,4.37,0,0,1-.38-1.68,9.17,9.17,0,0,1,.53-3.19,18.58,18.58,0,0,1,3.06-5.51,22,22,0,0,1,4.53-4.35,16.9,16.9,0,0,1,11.92-3.28,16.09,16.09,0,0,1,5.95,1.94,16.39,16.39,0,0,1,4.73,4.07,22.32,22.32,0,0,1,3.08,5.38,25.27,25.27,0,0,1,1.64,5.95,25,25,0,0,0-5.12-11,15.51,15.51,0,0,0-4.64-3.82,15.23,15.23,0,0,0-5.73-1.72,16.27,16.27,0,0,0-11.29,3.22,20.52,20.52,0,0,0-7.19,9.43,8.13,8.13,0,0,0-.51,2.85,2.42,2.42,0,0,0,1.1,2.2,2.53,2.53,0,0,0,1.25.29,1.49,1.49,0,0,0,1.06-.47,4.36,4.36,0,0,0,.92-2.56,13.7,13.7,0,0,0-1-5.84,15.56,15.56,0,0,0-3.12-5.08,11.8,11.8,0,0,0-5-3.22,11.43,11.43,0,0,0-5.92-.26A15.39,15.39,0,0,0,179.22,381.7Z" transform="translate(-43.37 -125.67)" fill="#263238"/><path d="M182.92,195.24a27,27,0,0,0-2.9-11.87,12.38,12.38,0,0,0-3.9-4.55,8.15,8.15,0,0,0-5.68-1.21,7.79,7.79,0,0,0-4.88,3,9.39,9.39,0,0,0-1.41,2.58,6.31,6.31,0,0,0-.36,2.83,2.11,2.11,0,0,0,.51,1.14,1.27,1.27,0,0,0,.47.32,2.45,2.45,0,0,0,.29.08,1.76,1.76,0,0,0,.23,0c.69-.13,1.35-1,1.8-1.86A19.33,19.33,0,0,0,169,180a25,25,0,0,0-.56-12,14.81,14.81,0,0,0-2.9-5.22,12.94,12.94,0,0,0-4.84-3.48,15.86,15.86,0,0,0-2.84-1.05,10.92,10.92,0,0,0-1.49-.3,9.62,9.62,0,0,0-1.5-.19,18.74,18.74,0,0,0-6,.59,27,27,0,0,0-10.71,5.88,26.18,26.18,0,0,1,4.9-3.79,24.42,24.42,0,0,1,5.68-2.56,19.14,19.14,0,0,1,6.21-.75,9.2,9.2,0,0,1,1.57.17,8.81,8.81,0,0,1,1.55.27,18.16,18.16,0,0,1,3,1,13.27,13.27,0,0,1,5.18,3.62,15.68,15.68,0,0,1,3.11,5.51,25.88,25.88,0,0,1,.69,12.48,20.57,20.57,0,0,1-2,6,7.61,7.61,0,0,1-.94,1.35,2.81,2.81,0,0,1-1.57,1,2.24,2.24,0,0,1-1.79-.69,3,3,0,0,1-.73-1.64,6.86,6.86,0,0,1,.42-3.26,10,10,0,0,1,1.56-2.82,8.42,8.42,0,0,1,5.44-3.27,8.84,8.84,0,0,1,6.15,1.45,12.86,12.86,0,0,1,4,4.84,24,24,0,0,1,2,5.92A27.27,27.27,0,0,1,182.92,195.24Z" transform="translate(-43.37 -125.67)" fill="#263238"/><path d="M353.77,192.37a27,27,0,0,0-12.22,0,12.4,12.4,0,0,0-5.33,2.74,8.09,8.09,0,0,0-2.5,5.23,7.8,7.8,0,0,0,1.81,5.45,9.17,9.17,0,0,0,2.19,2,6.12,6.12,0,0,0,2.66,1,2.15,2.15,0,0,0,1.23-.23,1.19,1.19,0,0,0,.42-.38c.06-.07.09-.18.15-.26s0-.16.05-.23c0-.69-.68-1.55-1.39-2.19a19.79,19.79,0,0,0-5.12-3.14,25,25,0,0,0-11.82-2.25,14.76,14.76,0,0,0-5.76,1.6,12.88,12.88,0,0,0-4.51,3.89,16.25,16.25,0,0,0-1.68,2.52,9.62,9.62,0,0,0-.64,1.38,9.3,9.3,0,0,0-.54,1.41,18.53,18.53,0,0,0-.83,6,26.82,26.82,0,0,0,3.22,11.79,25.89,25.89,0,0,1-2.55-5.65,24.89,24.89,0,0,1-1.16-6.12,19.27,19.27,0,0,1,.71-6.22,11.49,11.49,0,0,1,.53-1.49,10.88,10.88,0,0,1,.64-1.44,16.42,16.42,0,0,1,1.68-2.67,13.26,13.26,0,0,1,4.73-4.19,15.81,15.81,0,0,1,6.08-1.74,25.86,25.86,0,0,1,12.3,2.25,20.31,20.31,0,0,1,5.37,3.35,8.11,8.11,0,0,1,1.1,1.23,2.84,2.84,0,0,1,.57,1.75,2,2,0,0,1-.37.93,2.14,2.14,0,0,1-.72.65,3,3,0,0,1-1.76.33,6.91,6.91,0,0,1-3.07-1.17,9.88,9.88,0,0,1-2.38-2.18,8.41,8.41,0,0,1-1.91-6,8.88,8.88,0,0,1,2.84-5.64,13,13,0,0,1,5.64-2.74,23.64,23.64,0,0,1,6.21-.51A27,27,0,0,1,353.77,192.37Z" transform="translate(-43.37 -125.67)" fill="#263238"/><path d="M275.41,180.24a17,17,0,0,1-.39-7.35,17.89,17.89,0,0,1,2.57-7,14.26,14.26,0,0,1,5.44-5.1,14.87,14.87,0,0,1,7.32-1.6,18.73,18.73,0,0,1,7.29,1.76,17.4,17.4,0,0,1,6.07,4.45,6.12,6.12,0,0,1,1.6,3.59,2.83,2.83,0,0,1-.78,2,4.33,4.33,0,0,1-1.76,1.08,3.31,3.31,0,0,1-2.11-.09,5.22,5.22,0,0,1-1.7-1.11,10.93,10.93,0,0,1-2.2-3.15,22.29,22.29,0,0,1-2-7.25A26.86,26.86,0,0,1,295,153a20.22,20.22,0,0,1,7.42-12.74,19,19,0,0,1,14.13-3.8,25.8,25.8,0,0,1,7.14,2,29.89,29.89,0,0,1,6.39,3.7A29.77,29.77,0,0,0,316.51,137a18.53,18.53,0,0,0-18.23,9.39,21.23,21.23,0,0,0-2.36,6.8,24.58,24.58,0,0,0,1.73,14.15,10.27,10.27,0,0,0,2,2.89,3,3,0,0,0,2.88,1,3.32,3.32,0,0,0,1.36-.83,1.86,1.86,0,0,0,.53-1.35,5.24,5.24,0,0,0-1.37-3,16.65,16.65,0,0,0-5.74-4.23,18.5,18.5,0,0,0-7-1.74,14.34,14.34,0,0,0-7,1.41,13.7,13.7,0,0,0-5.31,4.77A18.39,18.39,0,0,0,275.41,180.24Z" transform="translate(-43.37 -125.67)" fill="#263238"/><path d="M175.87,381.92a4.25,4.25,0,1,0,2.78,5.34A4.26,4.26,0,0,0,175.87,381.92Zm2.29,5.18a3.73,3.73,0,1,1-2.44-4.68A3.74,3.74,0,0,1,178.16,387.1Zm-2.29-5.18a4.25,4.25,0,1,0,2.78,5.34A4.26,4.26,0,0,0,175.87,381.92Zm2.29,5.18a3.73,3.73,0,1,1-2.44-4.68A3.74,3.74,0,0,1,178.16,387.1Zm-2.29-5.18a4.25,4.25,0,1,0,2.78,5.34A4.26,4.26,0,0,0,175.87,381.92Zm2.29,5.18a3.73,3.73,0,1,1-2.44-4.68A3.74,3.74,0,0,1,178.16,387.1Zm-.87-9.67a9,9,0,1,0,5.85,11.24A9,9,0,0,0,177.29,377.43Zm2,10a4.91,4.91,0,1,1-3.21-6.16A4.91,4.91,0,0,1,179.28,387.45Zm-.63-.19a4.25,4.25,0,1,0-5.33,2.77A4.26,4.26,0,0,0,178.65,387.26Zm-.49-.16a3.73,3.73,0,1,1-2.44-4.68A3.74,3.74,0,0,1,178.16,387.1Zm-2.29-5.18a4.25,4.25,0,1,0,2.78,5.34A4.26,4.26,0,0,0,175.87,381.92Zm2.29,5.18a3.73,3.73,0,1,1-2.44-4.68A3.74,3.74,0,0,1,178.16,387.1Zm-2.29-5.18a4.25,4.25,0,1,0,2.78,5.34A4.26,4.26,0,0,0,175.87,381.92Zm2.29,5.18a3.73,3.73,0,1,1-2.44-4.68A3.74,3.74,0,0,1,178.16,387.1Z" transform="translate(-43.37 -125.67)" fill="#455a64"/><polygon points="130.28 269.02 127 267.98 126.44 270.37 129.37 271.29 130.28 269.02" fill="#455a64"/><polygon points="124.38 265.94 122.78 262.88 120.71 264.18 122.12 266.9 124.38 265.94" fill="#455a64"/><polygon points="122.38 259.58 123.41 256.3 121.03 255.75 120.11 258.67 122.38 259.58" fill="#455a64"/><polygon points="125.45 253.68 128.51 252.09 127.22 250.01 124.5 251.43 125.45 253.68" fill="#455a64"/><polygon points="131.81 251.68 135.09 252.71 135.65 250.33 132.72 249.41 131.81 251.68" fill="#455a64"/><polygon points="137.72 254.76 139.31 257.81 141.38 256.52 139.97 253.8 137.72 254.76" fill="#455a64"/><polygon points="139.72 261.11 138.68 264.4 141.06 264.95 141.99 262.02 139.72 261.11" fill="#455a64"/><polygon points="136.64 267.02 133.58 268.61 134.88 270.68 137.59 269.27 136.64 267.02" fill="#455a64"/><path d="M341.67,353.35a13.7,13.7,0,1,0-19.16,2.84A13.7,13.7,0,0,0,341.67,353.35ZM335.81,349a6.4,6.4,0,1,1-1.32-8.95A6.39,6.39,0,0,1,335.81,349Z" transform="translate(-43.37 -125.67)" fill="#263238"/><polygon points="281.59 231.63 277.36 228.49 275.37 231.66 279.13 234.45 281.59 231.63" fill="#263238"/><polygon points="274.6 224.23 273.82 219.02 270.18 219.85 270.86 224.49 274.6 224.23" fill="#263238"/><polygon points="274.88 214.05 278.02 209.82 274.86 207.83 272.06 211.59 274.88 214.05" fill="#263238"/><polygon points="282.28 207.06 287.49 206.28 286.66 202.64 282.03 203.32 282.28 207.06" fill="#263238"/><polygon points="292.46 207.34 296.69 210.48 298.68 207.32 294.92 204.52 292.46 207.34" fill="#263238"/><polygon points="299.45 214.74 300.23 219.96 303.87 219.12 303.19 214.49 299.45 214.74" fill="#263238"/><polygon points="299.17 224.92 296.03 229.15 299.2 231.14 301.99 227.38 299.17 224.92" fill="#263238"/><polygon points="291.77 231.92 286.56 232.69 287.39 236.33 292.02 235.65 291.77 231.92" fill="#263238"/><path d="M325.77,345.84l2.91,3.67,4.63-.69,1.72-4.35-2.91-3.67-4.63.69Zm5.51-1.87a1.48,1.48,0,1,1-1.77,2.38,1.49,1.49,0,0,1-.3-2.08A1.47,1.47,0,0,1,331.28,344Z" transform="translate(-43.37 -125.67)" fill="#263238"/><path d="M335.49,139.17a3.72,3.72,0,1,0,2.43,4.67A3.71,3.71,0,0,0,335.49,139.17Zm2,4.53a3.27,3.27,0,1,1-2.13-4.1A3.27,3.27,0,0,1,337.49,143.7Zm-2-4.53a3.72,3.72,0,1,0,2.43,4.67A3.71,3.71,0,0,0,335.49,139.17Zm2,4.53a3.27,3.27,0,1,1-2.13-4.1A3.27,3.27,0,0,1,337.49,143.7Zm-2-4.53a3.72,3.72,0,1,0,2.43,4.67A3.71,3.71,0,0,0,335.49,139.17Zm2,4.53a3.27,3.27,0,1,1-2.13-4.1A3.27,3.27,0,0,1,337.49,143.7Zm-.76-8.46a7.84,7.84,0,1,0,5.12,9.83A7.85,7.85,0,0,0,336.73,135.24Zm1.75,8.77a4.3,4.3,0,1,1-2.81-5.39A4.32,4.32,0,0,1,338.48,144Zm-.56-.17a3.72,3.72,0,1,0-4.66,2.43A3.72,3.72,0,0,0,337.92,143.84Zm-.43-.14a3.27,3.27,0,1,1-2.13-4.1A3.27,3.27,0,0,1,337.49,143.7Zm-2-4.53a3.72,3.72,0,1,0,2.43,4.67A3.71,3.71,0,0,0,335.49,139.17Zm2,4.53a3.27,3.27,0,1,1-2.13-4.1A3.27,3.27,0,0,1,337.49,143.7Zm-2-4.53a3.72,3.72,0,1,0,2.43,4.67A3.71,3.71,0,0,0,335.49,139.17Zm2,4.53a3.27,3.27,0,1,1-2.13-4.1A3.27,3.27,0,0,1,337.49,143.7Z" transform="translate(-43.37 -125.67)" fill="#263238"/><polygon points="290.18 24.67 287.3 23.76 286.82 25.85 289.38 26.66 290.18 24.67" fill="#263238"/><polygon points="285.01 21.98 283.62 19.3 281.8 20.43 283.04 22.81 285.01 21.98" fill="#263238"/><polygon points="283.26 16.42 284.17 13.54 282.08 13.06 281.27 15.62 283.26 16.42" fill="#263238"/><polygon points="285.95 11.25 288.63 9.85 287.5 8.04 285.12 9.28 285.95 11.25" fill="#263238"/><polygon points="291.51 9.5 294.39 10.4 294.87 8.32 292.31 7.51 291.51 9.5" fill="#263238"/><polygon points="296.68 12.19 298.08 14.87 299.89 13.73 298.65 11.35 296.68 12.19" fill="#263238"/><polygon points="298.43 17.75 297.53 20.63 299.61 21.11 300.42 18.55 298.43 17.75" fill="#263238"/><polygon points="295.74 22.92 293.06 24.31 294.2 26.13 296.58 24.89 295.74 22.92" fill="#263238"/><path d="M313.73,229.47a3.72,3.72,0,1,0,2.43,4.66A3.72,3.72,0,0,0,313.73,229.47Zm2,4.53a3.27,3.27,0,1,1-2.13-4.1A3.26,3.26,0,0,1,315.72,234Zm-2-4.53a3.72,3.72,0,1,0,2.43,4.66A3.72,3.72,0,0,0,313.73,229.47Zm2,4.53a3.27,3.27,0,1,1-2.13-4.1A3.26,3.26,0,0,1,315.72,234Zm-2-4.53a3.72,3.72,0,1,0,2.43,4.66A3.72,3.72,0,0,0,313.73,229.47Zm2,4.53a3.27,3.27,0,1,1-2.13-4.1A3.26,3.26,0,0,1,315.72,234Zm-.75-8.47a7.84,7.84,0,1,0,5.12,9.84A7.85,7.85,0,0,0,315,225.53Zm1.74,8.78a4.3,4.3,0,1,1-2.81-5.39A4.3,4.3,0,0,1,316.71,234.31Zm-.55-.18a3.72,3.72,0,1,0-4.67,2.43A3.72,3.72,0,0,0,316.16,234.13Zm-.44-.13a3.27,3.27,0,1,1-2.13-4.1A3.26,3.26,0,0,1,315.72,234Zm-2-4.53a3.72,3.72,0,1,0,2.43,4.66A3.72,3.72,0,0,0,313.73,229.47Zm2,4.53a3.27,3.27,0,1,1-2.13-4.1A3.26,3.26,0,0,1,315.72,234Zm-2-4.53a3.72,3.72,0,1,0,2.43,4.66A3.72,3.72,0,0,0,313.73,229.47Zm2,4.53a3.27,3.27,0,1,1-2.13-4.1A3.26,3.26,0,0,1,315.72,234Z" transform="translate(-43.37 -125.67)" fill="#263238"/><polygon points="268.41 114.97 265.54 114.06 265.06 116.14 267.61 116.95 268.41 114.97" fill="#263238"/><polygon points="263.24 112.27 261.85 109.6 260.04 110.73 261.27 113.11 263.24 112.27" fill="#263238"/><polygon points="261.49 106.71 262.4 103.84 260.31 103.35 259.51 105.91 261.49 106.71" fill="#263238"/><polygon points="264.19 101.54 266.86 100.15 265.73 98.33 263.35 99.57 264.19 101.54" fill="#263238"/><polygon points="269.75 99.79 272.62 100.7 273.11 98.61 270.55 97.81 269.75 99.79" fill="#263238"/><polygon points="274.92 102.49 276.31 105.16 278.13 104.03 276.89 101.65 274.92 102.49" fill="#263238"/><polygon points="276.67 108.05 275.76 110.92 277.85 111.41 278.65 108.85 276.67 108.05" fill="#263238"/><polygon points="273.97 113.22 271.3 114.61 272.43 116.42 274.81 115.19 273.97 113.22" fill="#263238"/><path d="M145,172a11.79,11.79,0,1,0-14.25,8.67A11.79,11.79,0,0,0,145,172Zm-6.11-1.49a5.51,5.51,0,1,1-4-6.65A5.51,5.51,0,0,1,138.88,170.53Z" transform="translate(-43.37 -125.67)" fill="#263238"/><polygon points="89.68 55.08 85.27 54.01 84.76 57.19 88.68 58.14 89.68 55.08" fill="#263238"/><polygon points="81.65 51.55 79.3 47.68 76.69 49.56 78.78 53.01 81.65 51.55" fill="#263238"/><polygon points="78.47 43.38 79.55 38.98 76.37 38.46 75.41 42.38 78.47 43.38" fill="#263238"/><polygon points="82 35.36 85.88 33 84 30.39 80.55 32.48 82 35.36" fill="#263238"/><polygon points="90.17 32.17 94.58 33.25 95.1 30.07 91.18 29.11 90.17 32.17" fill="#263238"/><polygon points="98.2 35.7 100.56 39.58 103.17 37.7 101.07 34.25 98.2 35.7" fill="#263238"/><polygon points="101.38 43.87 100.31 48.28 103.48 48.8 104.44 44.88 101.38 43.87" fill="#263238"/><polygon points="97.85 51.9 93.98 54.26 95.86 56.87 99.31 54.77 97.85 51.9" fill="#263238"/><path d="M129.86,171.39l3.53,1.94,3.45-2.1-.1-4-3.53-1.93-3.45,2.09Zm3.74-3.33a1.28,1.28,0,1,1-1.54.94A1.27,1.27,0,0,1,133.6,168.06Z" transform="translate(-43.37 -125.67)" fill="#263238"/></svg>