<svg xmlns="http://www.w3.org/2000/svg" width="108.17" height="127.81" viewBox="0 0 108.17 127.81"><title>logo</title><polygon points="3.27 40.72 86.52 11.4 107.35 105.99 23.33 125 3.27 40.72" fill="#fff" fill-rule="evenodd"/><path d="M21.86,69.53c-1.11-.8-1.7-1.4-2.79-2.2l16,69.17,84.51-18.38c-.2-3-1.7-8.11-2.38-11.25-.61-2.84-6.66-31.45-7.43-32.75-.54,9.49-4.32,17.26-7.68,24.79a75.31,75.31,0,0,1-5.63,10.45c-3.35,5-2.09,3.26-5.64,6.6-1.26,1.18-.74.94-2.81.86-2.7-3.22-3.44-11.14-1.4-15.63,3.5-1.09,2.85.18,4.86-2.81a29,29,0,0,0,2.63-5.06c1.06-2.62,3.67-9.74,2.3-12.68-.77-.72-5.59,2.2-6.17,2.57-3.11,2-12,10.55-14.14,13.23-3.14,3.89-4.66,8.46-.94,13.12a27.21,27.21,0,0,0,2.24,2.32c2.17,2.15,4,6.89,3.22,9.94-2.48.91-12.73-8.62-14.6-9.85-1.33-.86-2.83-.44-4.46-1.78-1.25-1-2-2-3-3l-2.9-3.33c-.87-1.07-1.7-2.17-2.61-3.39C46.91,92.16,39,79.18,31.82,72.72c-4,.38-1.61,2.83-10-3.19Z" transform="translate(-11.45 -8.69)" fill="#320066" fill-rule="evenodd"/><path d="M11.45,35.15c0,2.26,2.42,10.63,3.06,13.4.51,2.2,1.05,4.4,1.57,6.59L17.66,62c1.35-3.57,6.5-7.78,9.47-10.47a67.7,67.7,0,0,1,12-8.16C47,39,60.21,33.21,70.42,38.24A23.9,23.9,0,0,1,80.58,48c3.71,7.14,1.66,9.76,1.87,17.32.16,6.1,2.51,2.73,12.17-.81,4.19-1.54,8.51.2,11.76,2.56a20.64,20.64,0,0,1,2.5,2.55L96.93,15.38c-1.59,0-18.44,4.16-21.4,4.85-7.11,1.67-14.28,3.37-21.41,5s-14.06,3.28-21.21,4.94c-5.11,1.19-17.21,4.25-21.46,5Z" transform="translate(-11.45 -8.69)" fill="#320066" fill-rule="evenodd"/><path d="M56.65,86.54c1.18-8.4,2.26-21.2,2.67-30.14.27-6-10.38-1.15-13.4,1-1.51,1-6.41,4.9-6.54,6.58C39.22,66,48.47,77.36,50.17,79.37l1.54,1.82,4.94,5.35Z" transform="translate(-11.45 -8.69)" fill="#320066" fill-rule="evenodd"/><path d="M16.6,32.79c1.2,0,65.92-15.12,66.5-15.47l0-8.39C81.62,9,17.52,32.76,16.6,32.79Z" transform="translate(-11.45 -8.69)" fill="#06a5d5" fill-rule="evenodd"/><path d="M26.6,26.83c6.08-1.7,12.75-4.14,18.88-6.16s12.6-4.33,18.94-6.24l0-5.74C63,9.06,27.46,26.4,26.6,26.83Z" transform="translate(-11.45 -8.69)" fill="#06a5d5" fill-rule="evenodd"/><path d="M38.55,19,51,13.68l0-4.26C50.12,9.83,39.17,18.24,38.55,19Z" transform="translate(-11.45 -8.69)" fill="#06a5d5" fill-rule="evenodd"/></svg>