<svg xmlns="http://www.w3.org/2000/svg" viewBox="0 0 538.18 454.54"><title>payment-method</title><rect x="60.41" y="34.57" width="280.48" height="277.59" rx="26.74" fill="#f2f2f2"/><path d="M134.82,145.35a68.91,68.91,0,0,0-68.91,68.91V390.7a21.24,21.24,0,0,0,21.24,21.24H232A103.37,103.37,0,0,0,335.39,308.58v-142a21.24,21.24,0,0,0-21.25-21.24Z" transform="translate(0.01 -105.28)" fill="#fff"/><path d="M235.27,317.4h-154a3.32,3.32,0,1,1,0-6.64h154a3.32,3.32,0,0,1,0,6.64Z" transform="translate(0.01 -105.28)" fill="#f2f2f2"/><path d="M235.27,222.68H3.32a3.32,3.32,0,0,1,0-6.64h232a3.32,3.32,0,0,1,0,6.64Z" transform="translate(0.01 -105.28)" fill="#f2f2f2"/><path d="M235.27,246.39H3.32a3.33,3.33,0,1,0,0,6.65h232a3.33,3.33,0,1,0,0-6.65Z" transform="translate(0.01 -105.28)" fill="#f2f2f2"/><path d="M235.27,283.4H3.32a3.32,3.32,0,0,1,0-6.64h232a3.32,3.32,0,0,1,0,6.64Z" transform="translate(0.01 -105.28)" fill="#f2f2f2"/><polygon points="430.59 443.43 419.94 443.43 414.88 402.36 430.59 402.36 430.59 443.43" fill="#a0616a"/><path d="M431,559.82H398.21v-.41A12.75,12.75,0,0,1,411,546.66h0l6-4.54,11.16,4.54H431Z" transform="translate(0.01 -105.28)" fill="#2f2e41"/><polygon points="537.73 443.43 527.08 443.43 522.02 402.36 537.74 402.36 537.73 443.43" fill="#a0616a"/><path d="M538.1,559.82H505.35v-.41a12.76,12.76,0,0,1,12.75-12.75h0l6-4.54,11.16,4.54h2.86Z" transform="translate(0.01 -105.28)" fill="#2f2e41"/><path d="M439.27,312.75s-7,7.42-7.29,12.24,3.35-3.94-.29,4.81-3.65,2.92-3.65,8.75-7.72,11.52-7.72,11.52l-12.73,52.39,7.33,122.68h16c14.9-45.43,21.83-80.51,13.85-96.21l22.26-49.5s42.08,131.67,43.8,133.22,1.72-.63,1.72,1.55-2.19,0,0,2.19l10.2,10.21,15.31-1.46s2-95.33-15-111.81c0,0,3.94-51,0-50.87s-3.94,6.7-3.94.14,4.67-8.31,4.67-8.31L510.7,308.21Z" transform="translate(0.01 -105.28)" fill="#2f2e41"/><path d="M521.89,211.19l-14.82,62.05,3.5,23.07,4.2,27.65L500.25,323l-22.47-1.46-41.72-2.7-3.65-122.45,19.14-20L455,166.7l27.67-.17,6.62,11.66,17,4.84a42.21,42.21,0,0,1,6.14,4.74c4.2,3.89,7.92,8.83,9.66,13.89a18,18,0,0,1,1,4.57Z" transform="translate(0.01 -105.28)" fill="#e6e6e6"/><path d="M393.09,368.62a8.79,8.79,0,0,0,3.45-11.95,9.26,9.26,0,0,0-.78-1.18l21.11-38.42-9.2-8.45-24.73,45.82a8.78,8.78,0,0,0,10.15,14.18Z" transform="translate(0.01 -105.28)" fill="#e6e6e6"/><path d="M444.57,188.93l-4.92,88.13L416,332.45l-15.43,20.46,1.76-9.27-10.64-5.32-1-.5,20.42-79.23,1.88-30.78A38.39,38.39,0,0,1,427,200.38l11.81-9.59Z" transform="translate(0.01 -105.28)" fill="#e6e6e6"/><path d="M393.09,368.62a8.79,8.79,0,0,0,3.45-11.95,9.26,9.26,0,0,0-.78-1.18l21.11-38.42-9.2-8.45-24.73,45.82a8.78,8.78,0,0,0,10.15,14.18Z" transform="translate(0.01 -105.28)" fill="#a0616a"/><path d="M444.57,188.93l-4.92,88.13L416,332.45l-15.43,20.46,1.76-9.27-10.64-5.32-1-.5,20.42-79.23,1.88-30.78A38.39,38.39,0,0,1,427,200.38l11.81-9.59Z" transform="translate(0.01 -105.28)" fill="#e6e6e6"/><rect x="213.69" y="86.69" width="280.48" height="170.59" rx="26.74" fill="#fff"/><path d="M467.42,363.56h-227a27.78,27.78,0,0,1-27.75-27.75V218.71A27.77,27.77,0,0,1,240.43,191h227a27.77,27.77,0,0,1,27.74,27.74v117.1A27.77,27.77,0,0,1,467.42,363.56ZM240.43,193a25.74,25.74,0,0,0-25.75,25.74h0v43.77a99.08,99.08,0,0,0,99.08,99.08H467.42a25.74,25.74,0,0,0,25.74-25.75h0V218.71A25.73,25.73,0,0,0,467.42,193h-227Z" transform="translate(0.01 -105.28)" fill="#3f3d56"/><path d="M247.42,316.26h53a3.5,3.5,0,0,1,3.5,3.5h0a3.49,3.49,0,0,1-3.5,3.5h-53a3.5,3.5,0,0,1-3.5-3.5h0A3.5,3.5,0,0,1,247.42,316.26Z" transform="translate(0.01 -105.28)" fill="#6c63ff"/><rect x="419.93" y="201.48" width="44" height="26" rx="3.5" fill="#6c63ff"/><circle cx="261.93" cy="134.48" r="18" fill="#6c63ff"/><circle cx="467.8" cy="33.5" r="22.6" fill="#a0616a"/><path d="M486.34,150.46c.17,1.35-2.27,1.49-2.82.25s.17-2.66.86-3.83l1.61-2.72a3.74,3.74,0,0,0-1.31-5.12,3.56,3.56,0,0,0-1.15-.44h0c1.48-3.32-.12-7.46-3.06-9.59s-7.32,1.85-10.88,2.54-6.42-2.05-9.67-.43l1.95-4.5-10.81,4.66,2.51-5.07c-2.73.15-3.89,3.47-4.43,6.15-.58,2.85-2.1,6.42-5.2,5.83a4,4,0,0,1-3-3c-2.4-9.24,4.56-19.34,13.78-21a13.57,13.57,0,0,1,25.89,1.23l3-3.7.59,5.24c2.17-.23,4.23,1.31,5.28,3.22s.56,4.38,1.57,6.32c4.55,8.68,3,18.45-4,25.1" transform="translate(0.01 -105.28)" fill="#2f2e41"/><path d="M477.42,363.27a8.78,8.78,0,0,0,3-12.06,8.55,8.55,0,0,0-.82-1.15l19.73-39.15-9.49-8.12-23.09,46.67a8.78,8.78,0,0,0,10.65,13.81Z" transform="translate(0.01 -105.28)" fill="#a0616a"/><path d="M522.08,201.66l1,4.58-2.37,63.88-10.13,26.2L500.25,323,499,326.32l-14.69,21,1.42-9.33L474.89,333l-1-.45,3.9-11,9-25.32,3.88-11,.84-32.61.78-30.83a38.38,38.38,0,0,1,13.11-27.91l7.06-6.16C516.62,191.66,520.34,196.6,522.08,201.66Z" transform="translate(0.01 -105.28)" fill="#e6e6e6"/><path d="M286.07,361.25l-46.88-1a22,22,0,0,1-22-22l-2-49C221,329.19,243.08,354.54,286.07,361.25Z" transform="translate(0.01 -105.28)" fill="#6c63ff"/></svg>