<?xml version="1.0" encoding="utf-8"?>
<!-- Generator: Adobe Illustrator 23.0.0, SVG Export Plug-In . SVG Version: 6.00 Build 0)  -->
<svg version="1.1" id="Layer_1" xmlns="http://www.w3.org/2000/svg" xmlns:xlink="http://www.w3.org/1999/xlink" x="0px" y="0px"
	 viewBox="0 0 24 24" style="enable-background:new 0 0 24 24;" xml:space="preserve">
<style type="text/css">
	.st0{fill:#169BD7;}
	.st1{fill:#222D65;}
</style>
<path class="st0" d="M19.6,9.5c0.1,0.6,0.1,1.2,0,2.1c-0.6,3-2.5,4.5-5.7,4.5h-0.4c-0.2,0-0.3,0.1-0.4,0.2c-0.1,0.1-0.2,0.3-0.2,0.4
	l0,0.2l-0.6,3.5l0,0.2c0,0.2-0.1,0.3-0.2,0.4C11.7,21,11.6,21,11.4,21H8.9c-0.1,0-0.3,0-0.3-0.1c-0.1-0.1-0.1-0.2-0.1-0.4
	c0.1-0.4,0.1-0.9,0.3-1.7c0.1-0.8,0.2-1.3,0.3-1.7s0.1-0.9,0.3-1.7c0.1-0.7,0.2-1.3,0.3-1.7c0-0.2,0.2-0.4,0.4-0.4h1.3
	c0.9,0,1.7-0.1,2.4-0.2c1.2-0.3,2.1-0.7,2.9-1.4c0.7-0.6,1.2-1.5,1.6-2.5c0.2-0.5,0.3-0.9,0.4-1.3c0,0,0-0.1,0-0.1c0,0,0,0,0,0
	c0,0,0,0,0.1,0C19.1,8.3,19.4,8.8,19.6,9.5z"/>
<path class="st1" d="M17.8,6.7c0,0.7-0.2,1.5-0.5,2.4c-0.5,1.6-1.5,2.6-3,3.2c-0.8,0.3-1.6,0.4-2.5,0.4c0,0-0.3,0-0.9,0l-0.9,0
	c-0.7,0-1.1,0.3-1.2,1c0,0.1-0.3,1.8-0.9,5.3c0,0.1,0,0.1-0.1,0.1h-3c-0.1,0-0.3-0.1-0.4-0.2c-0.1-0.1-0.1-0.2-0.1-0.4L6.7,3.7
	c0-0.2,0.1-0.4,0.3-0.5C7.1,3.1,7.3,3,7.5,3h6c0.2,0,0.6,0,1,0.1c0.4,0.1,0.8,0.2,1.1,0.3c0.7,0.3,1.3,0.7,1.6,1.2
	C17.6,5.2,17.8,5.9,17.8,6.7z"/>
</svg>
